<svg width="9857" height="2476" viewBox="0 0 9857 2476" fill="none" xmlns="http://www.w3.org/2000/svg">
<path d="M3393.69 1530.49H2832.92L3389.09 882.828V613.551H2368.67V919.971H2940.93L2361.77 1567.63V1836.91H3393.69V1530.49ZM3923.99 1860.13C4082.57 1860.13 4202.08 1811.38 4282.51 1727.81C4344.56 1832.27 4487.06 1871.74 4698.48 1836.91V1562.99C4627.27 1572.28 4604.28 1553.71 4604.28 1491.03V1019.79C4604.28 734.261 4408.91 588.015 4091.76 588.015C3783.79 588.015 3593.04 764.438 3540.18 980.328L3891.81 1033.72C3914.79 933.899 3969.95 887.474 4075.67 887.474C4195.18 887.474 4243.44 945.506 4243.44 1036.04V1056.93L3972.25 1103.36C3717.15 1140.5 3505.71 1242.64 3505.71 1495.67C3505.71 1711.56 3680.38 1860.13 3923.99 1860.13ZM4243.44 1398.18C4243.44 1523.53 4130.83 1588.53 4009.02 1588.53C3921.69 1588.53 3864.23 1546.74 3864.23 1470.14C3864.23 1384.24 3935.48 1351.75 4032 1335.5L4243.44 1296.04V1398.18ZM5470.95 1864.77L5932.9 613.551H5567.48L5323.89 1365.68L5075.65 613.551H4696.44L5126.22 1783.52L5096.34 1862.45C5064.16 1946.02 5015.89 1966.91 4937.74 1966.91C4901.01 1966.91 4878.02 1964.59 4845.84 1959.95V2254.76C4887.22 2259.4 4919.35 2261.73 4983.71 2261.73C5271.02 2261.73 5381.35 2110.84 5470.95 1864.77ZM6420.31 1138.18C6420.31 994.256 6514.55 922.291 6611.09 922.291C6730.61 922.291 6776.53 1012.83 6776.53 1135.86V1836.91H7144.25V1138.18C7144.25 994.256 7238.49 922.291 7335.02 922.291C7452.25 922.291 7500.52 1012.83 7500.52 1135.86V1836.91H7868.23V1029.07C7868.23 762.117 7705.04 588.015 7459.14 588.015C7272.97 588.015 7153.44 678.549 7084.53 755.156C7015.58 650.693 6896.06 588.015 6751.25 588.015C6597.3 588.015 6486.97 657.655 6420.31 736.582V613.551H6052.6V1836.91H6420.31V1138.18ZM9248.52 1226.39C9248.52 845.685 8998.03 588.015 8641.81 588.015C8283.24 588.015 8035.05 845.685 8035.05 1226.39C8035.05 1607.1 8283.24 1862.45 8641.81 1862.45C8998.03 1862.45 9248.52 1607.1 9248.52 1226.39ZM8400.46 1226.39C8400.46 1012.83 8494.7 892.115 8641.81 892.115C8788.87 892.115 8883.1 1012.83 8883.1 1226.39C8883.1 1439.96 8788.87 1560.67 8641.81 1560.67C8494.7 1560.67 8400.46 1439.96 8400.46 1226.39Z" fill="white"/>
<path d="M888.31 622.311H621.919C592.914 622.311 569.398 646.06 569.398 675.357V1074.61C569.398 1126.96 636.51 1147.67 665.475 1104.26L931.862 705.003C955.373 669.77 930.377 622.311 888.31 622.311Z" fill="url(#paint0_linear_7217_2)"/>
<path d="M1446.56 1837.06H1704.75C1733.66 1837.06 1757.13 1813.47 1757.27 1784.27L1759.17 1384.24C1759.42 1331.43 1691.46 1310.72 1662.76 1354.86L1402.66 1754.89C1379.72 1790.17 1404.78 1837.06 1446.56 1837.06Z" fill="url(#paint1_linear_7217_2)"/>
<g filter="url(#filter0_d_7217_2)">
<path d="M960.511 1837.06H658.586C617.068 1837.06 591.966 1790.7 614.367 1755.4L1317.84 646.43C1327.5 631.203 1344.17 622 1362.07 622H1663.66C1705.17 622 1730.28 668.35 1707.89 703.658L1004.74 1812.62C995.081 1827.85 978.413 1837.06 960.511 1837.06Z" fill="url(#paint2_linear_7217_2)"/>
</g>
<defs>
<filter id="filter0_d_7217_2" x="601.98" y="622" width="1118.29" height="1223.06" filterUnits="userSpaceOnUse" color-interpolation-filters="sRGB">
<feFlood flood-opacity="0" result="BackgroundImageFix"/>
<feColorMatrix in="SourceAlpha" type="matrix" values="0 0 0 0 0 0 0 0 0 0 0 0 0 0 0 0 0 0 127 0" result="hardAlpha"/>
<feOffset dy="4"/>
<feGaussianBlur stdDeviation="2"/>
<feComposite in2="hardAlpha" operator="out"/>
<feColorMatrix type="matrix" values="0 0 0 0 0 0 0 0 0 0 0 0 0 0 0 0 0 0 0.25 0"/>
<feBlend mode="normal" in2="BackgroundImageFix" result="effect1_dropShadow_7217_2"/>
<feBlend mode="normal" in="SourceGraphic" in2="effect1_dropShadow_7217_2" result="shape"/>
</filter>
<linearGradient id="paint0_linear_7217_2" x1="587.974" y1="564.672" x2="587.974" y2="1110.02" gradientUnits="userSpaceOnUse">
<stop stop-color="#FF11DE"/>
<stop offset="0.885417" stop-color="#FF6C73"/>
</linearGradient>
<linearGradient id="paint1_linear_7217_2" x1="1587.45" y1="1330.84" x2="1587.45" y2="1783.97" gradientUnits="userSpaceOnUse">
<stop offset="0.0572917" stop-color="#FF6D70"/>
<stop offset="0.880208" stop-color="#FF1CD1"/>
</linearGradient>
<linearGradient id="paint2_linear_7217_2" x1="1161.12" y1="622" x2="1161.12" y2="1837.06" gradientUnits="userSpaceOnUse">
<stop stop-color="#302F9D"/>
<stop offset="0.921875" stop-color="#2BD7FE"/>
</linearGradient>
</defs>
</svg>
